<?xml version="1.0" encoding="utf-8"?>
<!-- Generator: Adobe Illustrator 19.2.1, SVG Export Plug-In . SVG Version: 6.00 Build 0)  -->
<svg version="1.1" xmlns="http://www.w3.org/2000/svg" xmlns:xlink="http://www.w3.org/1999/xlink" x="0px" y="0px"
	 viewBox="0 0 1964.6 2832.8" enable-background="new 0 0 1964.6 2832.8" xml:space="preserve">
<g id="Layer_1">
	<g opacity="4.000000e-02">
		<defs>
			<rect id="SVGID_135_" opacity="4.000000e-02" width="1964.6" height="2832.8"/>
		</defs>
		<clipPath id="SVGID_2_">
			<use xlink:href="#SVGID_135_"  overflow="visible"/>
		</clipPath>
		<g clip-path="url(#SVGID_2_)">
			<defs>
				<rect id="SVGID_137_" y="0" width="1964.6" height="2832.8"/>
			</defs>
			<clipPath id="SVGID_4_">
				<use xlink:href="#SVGID_137_"  overflow="visible"/>
			</clipPath>
			<g clip-path="url(#SVGID_4_)">
				<g>
					<defs>
						<rect id="SVGID_139_" x="-34.6" y="-15.2" width="2033.8" height="2861.3"/>
					</defs>
					<clipPath id="SVGID_6_">
						<use xlink:href="#SVGID_139_"  overflow="visible"/>
					</clipPath>
					<path clip-path="url(#SVGID_6_)" fill="#FFFFFF" d="M1764,1427.6c-13.7,24.6-28.6,48.5-44.5,71.7c15,30.7,28.2,62.4,39.4,95.1
						c18-23.2,35-47.2,50.9-71.9C1796.3,1489.8,1781,1458.2,1764,1427.6"/>
					<path clip-path="url(#SVGID_6_)" fill="#FFFFFF" d="M587.6,1795.9c-3,19.6-4.6,39.7-4.6,60.1c0,12,0.6,23.9,1.6,35.6
						c121.6,54.1,256.2,84.2,397.6,84.2c135.7,0,265-27.7,382.7-77.6c1.5-13.9,2.3-27.9,2.3-42.2c0-18.2-1.3-36.1-3.7-53.7
						c-115.7,54.8-245,85.5-381.3,85.5C840.7,1887.9,706.8,1854.7,587.6,1795.9"/>
					<path clip-path="url(#SVGID_6_)" fill="#FFFFFF" d="M297.1,1567.6c-13.3,30.5-24.6,62.1-33.7,94.6c23.1,24.8,47.4,48.5,73,70.8
						c6.2-32.8,14.9-64.7,25.8-95.6C339.3,1615.3,317.6,1592,297.1,1567.6"/>
					<path clip-path="url(#SVGID_6_)" fill="#FFFFFF" d="M982.3,11.2C440.7,11.2,0,451.9,0,993.5c0,155.8,36.5,303.1,101.3,434.1
						c16.2-32.7,34-64.3,53.6-94.8C111.8,1228.1,88,1113.6,88,993.5C88,500.4,489.2,99.2,982.3,99.2s894.3,401.2,894.3,894.3
						c0,120-23.8,234.6-66.9,339.3c19.6,30.5,37.4,62.2,53.6,94.8c64.8-131,101.3-278.3,101.3-434.1
						C1964.6,451.9,1524,11.2,982.3,11.2"/>
					<path clip-path="url(#SVGID_6_)" fill="#FFFFFF" d="M1530.1,1700c-27.1,21.1-55.4,40.6-84.8,58.5c6.4,31,9.8,63,10,95.8
						c32.3-17.8,63.5-37.4,93.4-58.6C1545.2,1762.9,1538.9,1730.9,1530.1,1700"/>
					<path clip-path="url(#SVGID_6_)" fill="#FFFFFF" d="M200.6,1427.6c-17,30.6-32.3,62.2-45.8,94.8c13.2,20.6,27.1,40.6,41.8,60.1
						c11.7-32.5,25.3-64.1,40.8-94.5C224.4,1468.4,212.1,1448.2,200.6,1427.6"/>
					<path clip-path="url(#SVGID_6_)" fill="#FFFFFF" d="M434.5,1700c-8.8,30.9-15.1,62.9-18.5,95.7c25.5,18.1,52,35,79.2,50.6
						c0.7-32.8,4.6-64.8,11.6-95.7C481.8,1734.9,457.7,1718,434.5,1700"/>
					<path clip-path="url(#SVGID_6_)" fill="#FFFFFF" d="M1658.6,1578.1c-17.8,20.6-36.6,40.4-56.3,59.3
						c10.9,30.9,19.6,62.8,25.8,95.6c21.7-19,42.6-39,62.6-59.8C1682.2,1640.6,1671.4,1608.8,1658.6,1578.1"/>
					<path clip-path="url(#SVGID_6_)" fill="#FFFFFF" d="M982.3,330.4c-362.5,0-657.5,294.9-657.5,657.5c0,45.5,4.6,89.8,13.5,132.7
						c25.2-21.9,51.5-42.6,78.9-61.9c-2.9-23.2-4.4-46.8-4.4-70.8c0-314,255.5-569.5,569.5-569.5s569.5,255.5,569.5,569.5
						c0,24-1.5,47.6-4.4,70.8c27.4,19.3,53.7,40,78.9,61.9c8.8-42.9,13.5-87.3,13.5-132.7C1639.8,625.3,1344.8,330.4,982.3,330.4"/>
					<path clip-path="url(#SVGID_6_)" fill="#FFFFFF" d="M437.3,1153.1c-25.1,19.3-49.2,39.9-72,61.8c7.7,20.9,16.5,41.3,26.2,61.2
						c21.7-21.6,44.6-42.1,68.6-61.2C451.3,1194.9,443.7,1174.3,437.3,1153.1"/>
					<path clip-path="url(#SVGID_6_)" fill="#FFFFFF" d="M775.7,1518.6c-28.9,17.1-55.4,37.8-78.8,61.5
						c86.4,41.8,183.2,65.3,285.4,65.3c98.4,0,191.7-21.8,275.6-60.6c-23.1-24.1-49.2-45.2-77.8-62.8
						c-61.7,22.9-128.3,35.5-197.8,35.5C909.5,1557.4,839.8,1543.6,775.7,1518.6"/>
					<path clip-path="url(#SVGID_6_)" fill="#FFFFFF" d="M502.2,1294c-22.9,19.1-44.6,39.6-65,61.2c15.8,23.4,33.1,45.6,51.7,66.7
						c19.4-22.1,40.3-42.8,62.5-62.1C533.5,1339.1,517.1,1317.1,502.2,1294"/>
					<path clip-path="url(#SVGID_6_)" fill="#FFFFFF" d="M1350.5,1422c-24.7,21-51.2,39.9-79.2,56.5c23.9,18.8,46,39.8,65.9,62.7
						c26.7-17.2,52.1-36.3,76-57.1C1394,1461.8,1373,1441,1350.5,1422"/>
					<path clip-path="url(#SVGID_6_)" fill="#FFFFFF" d="M614.1,1422c-22.4,19.1-43.4,39.8-62.7,62.1c21.2,18.4,43.6,35.5,67,51.1
						c20.3-22.6,42.7-43.2,66.9-61.6C660.2,1458.2,636.4,1440.9,614.1,1422"/>
					<path clip-path="url(#SVGID_6_)" fill="#FFFFFF" d="M1457.6,1301.2c-13.6,20.5-28.4,40.1-44.4,58.6c22.2,19.3,43,40,62.5,62.1
						c16.4-18.6,31.8-38.2,46-58.5C1501.6,1341.4,1480.2,1320.7,1457.6,1301.2"/>
					<path clip-path="url(#SVGID_6_)" fill="#FFFFFF" d="M1527.3,1153.1c-7.3,23.9-16.1,47.2-26.3,69.7
						c23.7,19.5,46.2,40.3,67.6,62.3c11.5-22.7,21.8-46.1,30.7-70.2C1576.5,1193.1,1552.4,1172.5,1527.3,1153.1"/>
					<path clip-path="url(#SVGID_6_)" fill="#FFFFFF" d="M975.7,166c-456.3,0-827.5,371.2-827.5,827.5c0,97.9,17.1,191.9,48.5,279.2
						c20.9-27.8,43.2-54.3,66.8-79.7c-17.8-63.5-27.4-130.4-27.4-199.5c0-407.8,331.8-739.6,739.6-739.6s739.6,331.8,739.6,739.6
						c0,65.1-8.5,128.3-24.4,188.5c24,25,46.7,51.4,68,78.8c28.7-83.9,44.3-173.8,44.3-267.3C1803.2,537.2,1432,166,975.7,166"/>
					<path clip-path="url(#SVGID_6_)" fill="#FFFFFF" d="M1462.3,1549.9c-24,21.1-49.5,40.6-76.1,58.4
						c15.2,25.2,28.2,51.9,38.7,79.8c27.8-18,54.4-37.7,79.8-58.8C1492.6,1601.7,1478.5,1575.1,1462.3,1549.9"/>
					<path clip-path="url(#SVGID_6_)" fill="#FFFFFF" d="M497.6,1557.3c-15.7,25.4-29.5,52.2-41.2,80.1
						c22.1,17.9,45.2,34.7,69.1,50.2c10.5-27.9,23.5-54.6,38.8-79.8C541.1,1592.3,518.9,1575.4,497.6,1557.3"/>
					<path clip-path="url(#SVGID_6_)" fill="#FFFFFF" d="M297.1,1287.6c-21.3,25.4-41.2,52-59.7,79.7c10.5,20.6,21.8,40.8,34,60.4
						c17-27.5,35.6-53.9,55.6-79.2C316.1,1328.7,306.2,1308.4,297.1,1287.6"/>
					<path clip-path="url(#SVGID_6_)" fill="#FFFFFF" d="M377.3,1427.6c-18.4,25.2-35.2,51.7-50.3,79.2c19,24,39.3,46.9,60.8,68.6
						c13.2-27.8,28.3-54.6,45.1-80.1C413.1,1473.9,394.5,1451.3,377.3,1427.6"/>
					<path clip-path="url(#SVGID_6_)" fill="#FFFFFF" d="M1574,1427.6c-15,20.6-31,40.4-47.9,59.3c17.2,25.3,32.7,51.8,46.3,79.4
						c18.2-19,35.6-38.8,51.9-59.5C1609.2,1479.3,1592.4,1452.9,1574,1427.6"/>
					<path clip-path="url(#SVGID_6_)" fill="#FFFFFF" d="M1658.6,1277.1c-10.2,24.5-21.7,48.3-34.3,71.3
						c20,25.2,38.6,51.7,55.6,79.2c14.3-23.2,27.6-47.1,39.6-71.7C1700.6,1328.5,1680.3,1302.2,1658.6,1277.1"/>
					<path clip-path="url(#SVGID_6_)" fill="#FFFFFF" d="M640.1,1652.5c-15.2,24.9-27.7,51.7-37.1,79.8
						c112,56.7,238.6,88.8,372.6,88.8c133.6,0,259.9-31.9,371.7-88.3c-9.4-28.2-21.8-54.9-37-79.8
						c-100.6,51.3-214.3,80.2-334.7,80.2C854.9,1733.1,740.9,1704,640.1,1652.5"/>
					<path clip-path="url(#SVGID_6_)" fill="#FFFFFF" d="M645.5,1200c-26.3,13.2-51.8,27.9-76.2,44c14.5,22.9,31,44.6,49.1,64.7
						c25-16.7,51.2-31.7,78.5-44.9C677.6,1244.4,660.4,1223.1,645.5,1200"/>
					<path clip-path="url(#SVGID_6_)" fill="#FFFFFF" d="M975.2,507.8c-264.7,0-480.1,215.4-480.1,480.1c0,7,0.2,13.9,0.5,20.8
						c28.5-16.4,58-31.3,88.2-44.8C596.2,758.8,767,595.8,975.2,595.8c206,0,375.4,159.7,390.9,361.7c30.5,13,60.1,27.5,89,43.4
						c0.1-4.3,0.2-8.6,0.2-13C1455.2,723.2,1239.9,507.8,975.2,507.8"/>
					<path clip-path="url(#SVGID_6_)" fill="#FFFFFF" d="M589.4,1058.4c-27.6,13.6-54.4,28.5-80.3,44.7c5.3,21.3,12,42.1,20,62.2
						c24.9-16,50.7-30.7,77.3-44C599.1,1101,593.4,1080,589.4,1058.4"/>
					<path clip-path="url(#SVGID_6_)" fill="#FFFFFF" d="M1362,1052.1c-3.9,23.7-10,46.7-17.9,68.8c26.6,13.3,52.5,27.9,77.4,43.9
						c8.9-22.3,16.1-45.5,21.6-69.3C1416.9,1079.7,1389.8,1065.2,1362,1052.1"/>
					<path clip-path="url(#SVGID_6_)" fill="#FFFFFF" d="M1305,1199.7c-13.8,21.4-29.5,41.3-47.1,59.6c27.5,12.7,54,27.3,79.3,43.6
						c16.1-18.5,30.9-38.3,44.1-59.2C1356.8,1227.5,1331.4,1212.8,1305,1199.7"/>
					<path clip-path="url(#SVGID_6_)" fill="#FFFFFF" d="M1455,1000.9L1455,1000.9c-0.9,32.4-5,64.1-12,94.6
						c29.2,17.6,57.3,36.9,84.3,57.7c9.3-30.5,16.1-62.1,20.1-94.5C1517.8,1037.8,1487,1018.5,1455,1000.9"/>
					<path clip-path="url(#SVGID_6_)" fill="#FFFFFF" d="M982.3,879.4c-141.8,0-276.7,30.2-398.5,84.6c-0.5,7.9-0.8,15.9-0.8,23.9
						c0,24.1,2.2,47.7,6.4,70.6c118.7-58.3,252-91.1,392.9-91.1c135.7,0,264.3,30.4,379.7,84.7c3.5-20.9,5.3-42.3,5.3-64.2
						c0-10.2-0.4-20.4-1.2-30.4C1248.1,907.2,1118.4,879.4,982.3,879.4"/>
					<path clip-path="url(#SVGID_6_)" fill="#FFFFFF" d="M495.5,1008.7L495.5,1008.7c-26.9,15.4-53.1,32.1-78.4,50
						c4,32.4,10.8,64,20.1,94.5c23.1-17.8,47-34.5,71.8-50C501.6,1072.7,496.9,1041.1,495.5,1008.7"/>
					<path clip-path="url(#SVGID_6_)" fill="#FFFFFF" d="M1863.3,1427.6L1863.3,1427.6c-16.2,32.7-34,64.3-53.6,94.8
						c43.1,104.7,66.9,219.2,66.9,339.3c0,493.1-401.2,894.3-894.3,894.3S88,2354.8,88,1861.7c0-120,23.8-234.6,66.9-339.3
						c-19.6-30.5-37.4-62.2-53.6-94.8C36.5,1558.6,0,1706,0,1861.7C0,2403.3,440.7,2844,982.3,2844c541.7,0,982.3-440.7,982.3-982.3
						C1964.6,1706,1928.1,1558.6,1863.3,1427.6"/>
					<path clip-path="url(#SVGID_6_)" fill="#FFFFFF" d="M1626.3,1120.6L1626.3,1120.6c-6.7,32.4-15.7,63.9-27,94.3
						c20.7,19.8,40.5,40.5,59.3,62.2c12.8-30.7,23.6-62.5,32.2-95.1C1670.3,1160.6,1648.8,1140.1,1626.3,1120.6"/>
					<path clip-path="url(#SVGID_6_)" fill="#FFFFFF" d="M196.6,1272.7L196.6,1272.7c-14.6,19.5-28.6,39.5-41.8,60.1
						c13.4,32.6,28.7,64.3,45.8,94.8c11.5-20.6,23.8-40.8,36.8-60.4C222,1336.8,208.3,1305.2,196.6,1272.7"/>
					<path clip-path="url(#SVGID_6_)" fill="#FFFFFF" d="M338.3,1120.6L338.3,1120.6c-26.2,22.8-51.2,47-74.8,72.4
						c9.1,32.5,20.4,64.1,33.7,94.6c21.4-25.5,44.1-49.7,68.1-72.7C354,1184.5,345,1152.9,338.3,1120.6"/>
					<path clip-path="url(#SVGID_6_)" fill="#FFFFFF" d="M1758.9,1260.8L1758.9,1260.8c-11.2,32.7-24.4,64.4-39.4,95.1
						c15.9,23.1,30.8,47,44.5,71.7c17-30.6,32.3-62.2,45.8-94.8C1793.9,1308,1776.8,1284,1758.9,1260.8"/>
					<path clip-path="url(#SVGID_6_)" fill="#FFFFFF" d="M982.3,1198.6c-102.2,0-199.1,23.5-285.4,65.3c23.5,23.7,50,44.4,78.8,61.5
						c64.1-25,133.8-38.8,206.6-38.8c69.5,0,136.2,12.5,197.8,35.5c28.6-17.6,54.7-38.7,77.8-62.8
						C1174.1,1220.3,1080.7,1198.6,982.3,1198.6"/>
					<path clip-path="url(#SVGID_6_)" fill="#FFFFFF" d="M1475.7,1422L1475.7,1422c-19.4,22.1-40.3,42.8-62.5,62.1
						c17.9,20.7,34.3,42.7,49.1,65.8c22.5-19.7,43.8-40.7,63.8-63C1510.6,1464.2,1493.8,1442.5,1475.7,1422"/>
					<path clip-path="url(#SVGID_6_)" fill="#FFFFFF" d="M1337.2,1302.8L1337.2,1302.8c-19.9,22.9-42,43.9-65.9,62.7
						c28,16.6,54.5,35.5,79.2,56.5c22.5-19.1,43.4-39.8,62.7-62.1C1389.3,1339.1,1363.9,1320,1337.2,1302.8"/>
					<path clip-path="url(#SVGID_6_)" fill="#FFFFFF" d="M488.9,1422L488.9,1422c-20.3,23.1-39.1,47.6-56,73.4
						c20.3,21.9,41.9,42.7,64.7,62c16-25.9,34-50.4,53.8-73.3C529.2,1464.8,508.4,1444,488.9,1422"/>
					<path clip-path="url(#SVGID_6_)" fill="#FFFFFF" d="M618.4,1308.8L618.4,1308.8c-23.4,15.6-45.8,32.7-67,51.1
						c19.3,22.3,40.2,43,62.7,62.1c22.3-19,46.1-36.3,71.2-51.7C661.1,1351.9,638.7,1331.3,618.4,1308.8"/>
					<path clip-path="url(#SVGID_6_)" fill="#FFFFFF" d="M387.8,1575.4L387.8,1575.4c-9.5,20.1-18.1,40.8-25.6,62
						c23,22.1,47.1,43,72.3,62.6c6.1-21.4,13.5-42.3,21.9-62.6C432.5,1618,409.5,1597.3,387.8,1575.4"/>
					<path clip-path="url(#SVGID_6_)" fill="#FFFFFF" d="M1628.2,1733L1628.2,1733c-25.4,22.2-52,43.2-79.6,62.7
						c2.1,19.8,3.2,40,3.2,60.3c0,314-255.5,569.5-569.5,569.5s-569.5-255.5-569.5-569.5c0-20.4,1.1-40.5,3.2-60.3
						c-27.6-19.5-54.2-40.5-79.6-62.7c-7.6,39.9-11.6,81-11.6,123.1c0,362.5,294.9,657.5,657.5,657.5
						c362.5,0,657.5-294.9,657.5-657.5C1639.8,1814,1635.8,1772.9,1628.2,1733"/>
					<path clip-path="url(#SVGID_6_)" fill="#FFFFFF" d="M1572.4,1566.3L1572.4,1566.3c-21.4,22.3-44,43.3-67.7,63.1
						c9.9,22.8,18.5,46.4,25.4,70.6c25.2-19.6,49.3-40.5,72.3-62.6C1593.7,1613,1583.7,1589.3,1572.4,1566.3"/>
					<path clip-path="url(#SVGID_6_)" fill="#FFFFFF" d="M196.6,1582.5L196.6,1582.5c-31.4,87.3-48.5,181.3-48.5,279.2
						c0,456.3,371.2,827.5,827.5,827.5c456.3,0,827.5-371.2,827.5-827.5c0-93.5-15.6-183.4-44.3-267.3c-21.3,27.5-44,53.8-68,78.8
						c15.9,60.2,24.4,123.4,24.4,188.5c0,407.8-331.8,739.6-739.6,739.6s-739.6-331.8-739.6-739.6c0-69.1,9.6-136,27.4-199.5
						C239.8,1636.8,217.5,1610.3,196.6,1582.5"/>
					<path clip-path="url(#SVGID_6_)" fill="#FFFFFF" d="M271.4,1427.6L271.4,1427.6c-12.1,19.6-23.5,39.7-34,60.4
						c18.4,27.7,38.4,54.3,59.7,79.7c9-20.8,19-41.1,29.9-60.9C307,1481.5,288.4,1455.1,271.4,1427.6"/>
					<path clip-path="url(#SVGID_6_)" fill="#FFFFFF" d="M391.5,1276.1L391.5,1276.1c-22.9,22.8-44.4,47-64.5,72.3
						c15.1,27.5,31.9,53.9,50.3,79.2c18.5-25.4,38.5-49.6,60-72.4C420.2,1330,405,1303.6,391.5,1276.1"/>
					<path clip-path="url(#SVGID_6_)" fill="#FFFFFF" d="M1568.7,1285.1L1568.7,1285.1c-13.9,27.2-29.6,53.4-47,78.3
						c18.6,20.4,36.1,41.8,52.4,64.2c18.4-25.2,35.2-51.7,50.3-79.2C1606.8,1326.4,1588.2,1305.3,1568.7,1285.1"/>
					<path clip-path="url(#SVGID_6_)" fill="#FFFFFF" d="M529.1,1165.3L529.1,1165.3c-23.9,15.4-46.9,31.9-69,49.6
						c12,27.5,26.1,54,42.2,79.1c21.4-17.9,43.8-34.5,67.1-49.9C553.6,1219.3,540.1,1192.9,529.1,1165.3"/>
					<path clip-path="url(#SVGID_6_)" fill="#FFFFFF" d="M1421.4,1164.8L1421.4,1164.8c-11,27.6-24.5,54-40.2,78.8
						c26.7,17.6,52.2,36.8,76.4,57.6c16.4-24.8,31-51,43.4-78.4C1475.7,1202,1449.2,1182.6,1421.4,1164.8"/>
					<path clip-path="url(#SVGID_6_)" fill="#FFFFFF" d="M1679.9,1427.6L1679.9,1427.6c-17,27.5-35.6,53.9-55.6,79.2
						c12.7,23.1,24.1,46.9,34.3,71.3c21.7-25.1,42-51.4,60.9-78.8C1707.4,1474.7,1694.2,1450.8,1679.9,1427.6"/>
					<path clip-path="url(#SVGID_6_)" fill="#FFFFFF" d="M975.7,1034.2c-132.6,0-258,31.4-369.2,87.1c10.1,27.9,23.3,54.2,39.1,78.8
						c99.4-49.8,211.5-77.9,330.1-77.9c118.3,0,230.1,27.9,329.4,77.5c15.8-24.5,28.9-51,39-78.8
						C1233,1065.4,1107.9,1034.2,975.7,1034.2"/>
					<path clip-path="url(#SVGID_6_)" fill="#FFFFFF" d="M618.4,1535.2L618.4,1535.2c-20.2,22.4-38.3,46.7-54,72.7
						c24.3,16.3,49.6,31.2,75.8,44.6c16.1-26.3,35.1-50.6,56.7-72.4C669.6,1566.9,643.4,1551.9,618.4,1535.2"/>
					<path clip-path="url(#SVGID_6_)" fill="#FFFFFF" d="M525.6,1687.6L525.6,1687.6c-7.7,20.4-14,41.4-18.8,63
						c26.1,16.4,53.1,31.6,80.9,45.3c3.4-21.9,8.6-43.1,15.4-63.6C576.4,1718.8,550.5,1703.8,525.6,1687.6"/>
					<path clip-path="url(#SVGID_6_)" fill="#FFFFFF" d="M495.2,1846.3c-0.1,3.2-0.1,6.5-0.1,9.7c0,264.7,215.4,480.1,480.1,480.1
						c264.7,0,480.1-215.4,480.1-480.1c0-0.6,0-1.2,0-1.8c-29.2,16.1-59.3,30.8-90.2,43.9c-21.1,196.5-187.9,350-389.8,350
						c-204.2,0-372.4-156.9-390.5-356.5C554,1878,524.1,1862.9,495.2,1846.3"/>
					<path clip-path="url(#SVGID_6_)" fill="#FFFFFF" d="M1424.9,1688.2L1424.9,1688.2c-25,16.2-50.8,31.1-77.5,44.6
						c7.4,22.4,12.9,45.7,16.2,69.7c28-13.3,55.3-27.9,81.7-43.9C1440.2,1734.3,1433.4,1710.8,1424.9,1688.2"/>
					<path clip-path="url(#SVGID_6_)" fill="#FFFFFF" d="M1337.2,1541.1L1337.2,1541.1c-25.3,16.3-51.8,30.8-79.3,43.6
						c19.9,20.7,37.5,43.5,52.5,68.2c26.2-13.4,51.5-28.3,75.8-44.5C1371.8,1584.5,1355.4,1562,1337.2,1541.1"/>
				</g>
			</g>
		</g>
	</g>
</g>
<g id="Layer_2">
</g>
</svg>
