<?xml version="1.0" encoding="utf-8"?>
<!-- Generator: Adobe Illustrator 19.2.1, SVG Export Plug-In . SVG Version: 6.00 Build 0)  -->
<svg version="1.1" xmlns="http://www.w3.org/2000/svg" xmlns:xlink="http://www.w3.org/1999/xlink" x="0px" y="0px"
	 viewBox="0 0 2117.5 3053.2" enable-background="new 0 0 2117.5 3053.2" xml:space="preserve">
<g id="Layer_1">
	<g opacity="0.35">
		<defs>
			<rect id="SVGID_129_" y="0" opacity="0.35" width="2117.5" height="3053.2"/>
		</defs>
		<clipPath id="SVGID_2_">
			<use xlink:href="#SVGID_129_"  overflow="visible"/>
		</clipPath>
		<g clip-path="url(#SVGID_2_)">
			<defs>
				<rect id="SVGID_131_" y="0" width="2117.5" height="3053.2"/>
			</defs>
			<clipPath id="SVGID_4_">
				<use xlink:href="#SVGID_131_"  overflow="visible"/>
			</clipPath>
			<g opacity="0.12" clip-path="url(#SVGID_4_)">
				<g>
					<defs>
						<rect id="SVGID_133_" x="-37.3" y="-28.5" width="2192" height="3083.9"/>
					</defs>
					<clipPath id="SVGID_6_">
						<use xlink:href="#SVGID_133_"  overflow="visible"/>
					</clipPath>
					<path clip-path="url(#SVGID_6_)" fill="#D2BDB4" d="M1901.2,1526.6c-14.8,26.5-30.8,52.3-48,77.3
						c16.2,33.1,30.4,67.3,42.4,102.5c19.4-25,37.7-50.8,54.8-77.5C1936.1,1593.6,1919.6,1559.5,1901.2,1526.6"/>
					<path clip-path="url(#SVGID_6_)" fill="#D2BDB4" d="M633.4,1923.5c-3.3,21.1-5,42.8-5,64.8c0,12.9,0.6,25.7,1.8,38.4
						c131.1,58.3,276.1,90.7,428.6,90.7c146.2,0,285.6-29.8,412.4-83.7c1.6-14.9,2.5-30.1,2.5-45.4c0-19.6-1.4-38.9-4-57.8
						c-124.7,59-264,92.1-410.9,92.1C906.1,2022.6,761.7,1986.9,633.4,1923.5"/>
					<path clip-path="url(#SVGID_6_)" fill="#D2BDB4" d="M320.3,1677.5c-14.3,32.9-26.5,66.9-36.3,101.9
						c24.9,26.7,51.1,52.2,78.6,76.3c6.7-35.3,16.1-69.8,27.8-103C365.7,1728.9,342.3,1703.8,320.3,1677.5"/>
					<path clip-path="url(#SVGID_6_)" fill="#D2BDB4" d="M1058.7,0C474.9,0,0,475,0,1058.7c0,167.9,39.3,326.7,109.2,467.9
						c17.4-35.2,36.7-69.3,57.7-102.2c-46.4-112.8-72.1-236.3-72.1-365.7c0-531.5,432.4-963.9,963.9-963.9s963.9,432.4,963.9,963.9
						c0,129.4-25.7,252.8-72.1,365.7c21.1,32.9,40.3,67,57.8,102.2c69.8-141.2,109.2-300,109.2-467.9C2117.5,475,1642.5,0,1058.7,0"
						/>
					<path clip-path="url(#SVGID_6_)" fill="#D2BDB4" d="M1649.1,1820.1c-29.2,22.7-59.7,43.8-91.4,63.1
						c6.9,33.4,10.6,67.9,10.7,103.2c34.8-19.2,68.4-40.3,100.7-63.1C1665.4,1888,1658.6,1853.5,1649.1,1820.1"/>
					<path clip-path="url(#SVGID_6_)" fill="#D2BDB4" d="M216.2,1526.6c-18.4,32.9-34.8,67-49.3,102.2c14.2,22.2,29.2,43.7,45,64.7
						c12.6-35,27.3-69,44-101.9C241.9,1570.5,228.6,1548.8,216.2,1526.6"/>
					<path clip-path="url(#SVGID_6_)" fill="#D2BDB4" d="M468.3,1820.1c-9.5,33.3-16.2,67.8-20,103.2c27.5,19.5,56,37.7,85.4,54.5
						c0.7-35.4,5-69.8,12.5-103.1C519.3,1857.8,493.3,1839.6,468.3,1820.1"/>
					<path clip-path="url(#SVGID_6_)" fill="#D2BDB4" d="M1787.7,1688.8c-19.2,22.2-39.5,43.5-60.7,63.9
						c11.8,33.3,21.1,67.7,27.8,103c23.4-20.5,46-42,67.5-64.4C1813.1,1756.1,1801.5,1721.9,1787.7,1688.8"/>
					<path clip-path="url(#SVGID_6_)" fill="#D2BDB4" d="M1058.7,344c-390.7,0-708.6,317.9-708.6,708.6c0,49,5,96.8,14.5,143
						c27.2-23.6,55.6-45.9,85-66.7c-3.1-25-4.7-50.5-4.7-76.3c0-338.5,275.4-613.8,613.8-613.8s613.8,275.4,613.8,613.8
						c0,25.8-1.6,51.3-4.7,76.3c29.5,20.8,57.9,43.1,85,66.7c9.5-46.2,14.5-94,14.5-143C1767.4,661.9,1449.5,344,1058.7,344"/>
					<path clip-path="url(#SVGID_6_)" fill="#D2BDB4" d="M471.3,1230.8c-27,20.8-53,43-77.6,66.6c8.3,22.6,17.8,44.6,28.3,66
						c23.4-23.3,48.1-45.3,73.9-66C486.4,1275.8,478.2,1253.6,471.3,1230.8"/>
					<path clip-path="url(#SVGID_6_)" fill="#D2BDB4" d="M836.1,1624.6c-31.1,18.5-59.7,40.8-85,66.3
						c93.1,45.1,197.5,70.3,307.6,70.3c106,0,206.7-23.4,297.1-65.4c-24.9-25.9-53.1-48.7-83.8-67.7
						c-66.4,24.7-138.3,38.2-213.2,38.2C980.2,1666.5,905.1,1651.6,836.1,1624.6"/>
					<path clip-path="url(#SVGID_6_)" fill="#D2BDB4" d="M541.3,1382.6c-24.7,20.6-48,42.6-70,66c17,25.2,35.7,49.2,55.7,71.9
						c20.9-23.8,43.4-46.1,67.3-66.9C575,1431.2,557.3,1407.5,541.3,1382.6"/>
					<path clip-path="url(#SVGID_6_)" fill="#D2BDB4" d="M1455.6,1520.5c-26.6,22.6-55.2,43-85.4,60.9c25.8,20.2,49.5,42.9,71,67.6
						c28.8-18.5,56.2-39.1,81.9-61.5C1502.4,1563.4,1479.8,1541.1,1455.6,1520.5"/>
					<path clip-path="url(#SVGID_6_)" fill="#D2BDB4" d="M661.9,1520.5c-24.2,20.6-46.8,42.9-67.6,66.9
						c22.8,19.8,46.9,38.2,72.2,55.1c21.9-24.3,46-46.5,72.1-66.3C711.6,1559.6,685.9,1541,661.9,1520.5"/>
					<path clip-path="url(#SVGID_6_)" fill="#D2BDB4" d="M1571,1390.4c-14.6,22.1-30.6,43.2-47.9,63.2
						c23.9,20.8,46.4,43.2,67.3,66.9c17.7-20.1,34.2-41.1,49.6-63.1C1618.4,1433.7,1595.3,1411.3,1571,1390.4"/>
					<path clip-path="url(#SVGID_6_)" fill="#D2BDB4" d="M1646.2,1230.8c-7.8,25.8-17.3,50.9-28.3,75.1c25.5,21,49.8,43.5,72.8,67.2
						c12.4-24.4,23.5-49.7,33.1-75.7C1699.1,1273.8,1673.2,1251.6,1646.2,1230.8"/>
					<path clip-path="url(#SVGID_6_)" fill="#D2BDB4" d="M1051.5,166.8c-491.8,0-891.9,400.1-891.9,891.9
						c0,105.6,18.5,206.9,52.3,300.9c22.5-29.9,46.6-58.6,72-85.9c-19.2-68.4-29.5-140.5-29.5-215c0-439.5,357.6-797.1,797.1-797.1
						s797.1,357.6,797.1,797.1c0,70.2-9.2,138.3-26.3,203.2c25.9,27,50.4,55.4,73.3,84.9c30.9-90.4,47.8-187.3,47.8-288.1
						C1943.5,566.9,1543.4,166.8,1051.5,166.8"/>
					<path clip-path="url(#SVGID_6_)" fill="#D2BDB4" d="M1576.1,1658.4c-25.9,22.7-53.3,43.8-82,63c16.4,27.2,30.4,55.9,41.7,86
						c29.9-19.4,58.7-40.6,86-63.4C1608.8,1714.2,1593.5,1685.5,1576.1,1658.4"/>
					<path clip-path="url(#SVGID_6_)" fill="#D2BDB4" d="M536.3,1666.4c-17,27.4-31.8,56.2-44.4,86.3c23.9,19.3,48.7,37.4,74.5,54.1
						c11.3-30.1,25.3-58.8,41.8-86C583.2,1704.1,559.2,1685.9,536.3,1666.4"/>
					<path clip-path="url(#SVGID_6_)" fill="#D2BDB4" d="M320.3,1375.7c-23,27.4-44.5,56-64.3,85.9c11.3,22.2,23.5,43.9,36.6,65.1
						c18.3-29.6,38.3-58.1,59.9-85.3C340.7,1420,330,1398.1,320.3,1375.7"/>
					<path clip-path="url(#SVGID_6_)" fill="#D2BDB4" d="M406.6,1526.6c-19.8,27.2-37.9,55.7-54.2,85.3
						c20.5,25.8,42.4,50.5,65.6,73.9c14.2-30,30.5-58.8,48.6-86.3C445.2,1576.5,425.2,1552.1,406.6,1526.6"/>
					<path clip-path="url(#SVGID_6_)" fill="#D2BDB4" d="M1696.5,1526.6c-16.1,22.2-33.4,43.5-51.7,63.9
						c18.5,27.2,35.2,55.8,49.9,85.6c19.7-20.5,38.3-41.9,56-64.1C1734.4,1582.3,1716.3,1553.8,1696.5,1526.6"/>
					<path clip-path="url(#SVGID_6_)" fill="#D2BDB4" d="M1787.7,1364.4c-11,26.4-23.3,52-37,76.9c21.6,27.2,41.6,55.7,59.9,85.3
						c15.4-25,29.7-50.7,42.7-77.3C1832.9,1419.8,1811.1,1391.4,1787.7,1364.4"/>
					<path clip-path="url(#SVGID_6_)" fill="#D2BDB4" d="M689.9,1769c-16.4,26.9-29.8,55.7-39.9,86
						c120.8,61.2,257.2,95.7,401.6,95.7c144,0,280.1-34.3,400.6-95.2c-10.1-30.3-23.5-59.2-39.8-86.1
						c-108.4,55.2-231,86.4-360.8,86.4C921.4,1855.8,798.5,1824.5,689.9,1769"/>
					<path clip-path="url(#SVGID_6_)" fill="#D2BDB4" d="M695.8,1281.3c-28.4,14.2-55.8,30.1-82.1,47.5c15.7,24.7,33.4,48,52.9,69.7
						c27-18,55.2-34.2,84.6-48.4C730.4,1329.2,711.8,1306.1,695.8,1281.3"/>
					<path clip-path="url(#SVGID_6_)" fill="#D2BDB4" d="M1051,535.2c-285.3,0-517.4,232.1-517.4,517.4c0,7.5,0.2,15,0.5,22.5
						c30.8-17.6,62.5-33.7,95.1-48.2C642.6,805.8,826.6,630,1051,630c222,0,404.6,172.1,421.3,389.9c32.8,14,64.8,29.6,95.9,46.7
						c0.1-4.7,0.2-9.3,0.2-14C1568.4,767.3,1336.3,535.2,1051,535.2"/>
					<path clip-path="url(#SVGID_6_)" fill="#D2BDB4" d="M635.3,1128.7c-29.7,14.6-58.6,30.7-86.6,48.2c5.7,23,12.9,45.3,21.5,67
						c26.8-17.3,54.7-33.1,83.4-47.5C645.7,1174.6,639.5,1152,635.3,1128.7"/>
					<path clip-path="url(#SVGID_6_)" fill="#D2BDB4" d="M1467.9,1121.8c-4.2,25.5-10.7,50.3-19.3,74.1
						c28.7,14.3,56.6,30.1,83.4,47.4c9.6-24.1,17.4-49,23.3-74.7C1527.1,1151.6,1497.9,1136,1467.9,1121.8"/>
					<path clip-path="url(#SVGID_6_)" fill="#D2BDB4" d="M1406.5,1280.9c-14.8,23-31.8,44.5-50.7,64.2c29.6,13.7,58.2,29.4,85.4,47
						c17.4-20,33.3-41.3,47.5-63.8C1462.4,1310.9,1434.9,1295.1,1406.5,1280.9"/>
					<path clip-path="url(#SVGID_6_)" fill="#D2BDB4" d="M1568.2,1066.7L1568.2,1066.7c-0.9,34.9-5.3,69-12.9,101.9
						c31.5,19,61.8,39.8,90.8,62.2c10-32.9,17.3-66.9,21.7-101.8C1635.9,1106.4,1602.6,1085.6,1568.2,1066.7"/>
					<path clip-path="url(#SVGID_6_)" fill="#D2BDB4" d="M1058.7,935.7c-152.8,0-298.2,32.6-429.5,91.1c-0.5,8.5-0.8,17.1-0.8,25.8
						c0,26,2.4,51.4,6.9,76c127.9-62.8,271.6-98.2,423.5-98.2c146.2,0,284.9,32.8,409.2,91.3c3.7-22.5,5.7-45.6,5.7-69.2
						c0-11-0.4-21.9-1.3-32.7C1345.2,965.7,1205.4,935.7,1058.7,935.7"/>
					<path clip-path="url(#SVGID_6_)" fill="#D2BDB4" d="M534.1,1075.1L534.1,1075.1c-29,16.6-57.2,34.6-84.5,53.8
						c4.4,34.9,11.7,68.9,21.7,101.8c24.9-19.2,50.7-37.2,77.4-53.9C540.6,1144.1,535.6,1110,534.1,1075.1"/>
					<path clip-path="url(#SVGID_6_)" fill="#D2BDB4" d="M2008.3,1526.6L2008.3,1526.6c-17.4,35.2-36.7,69.3-57.8,102.2
						c46.4,112.8,72.1,236.3,72.1,365.7c0,531.5-432.4,963.9-963.9,963.9S94.8,2526,94.8,1994.5c0-129.4,25.7-252.8,72.1-365.7
						c-21.1-32.9-40.3-67-57.7-102.2C39.3,1667.8,0,1826.6,0,1994.5c0,583.8,474.9,1058.7,1058.7,1058.7
						c583.8,0,1058.7-474.9,1058.7-1058.7C2117.5,1826.6,2078.1,1667.8,2008.3,1526.6"/>
					<path clip-path="url(#SVGID_6_)" fill="#D2BDB4" d="M1752.8,1195.7L1752.8,1195.7c-7.2,34.9-16.9,68.9-29.1,101.7
						c22.3,21.3,43.7,43.7,63.9,67.1c13.8-33.1,25.4-67.3,34.7-102.5C1800.2,1238.8,1777,1216.7,1752.8,1195.7"/>
					<path clip-path="url(#SVGID_6_)" fill="#D2BDB4" d="M211.9,1359.7L211.9,1359.7c-15.8,21-30.8,42.6-45,64.7
						c14.5,35.2,30.9,69.3,49.3,102.2c12.4-22.2,25.6-43.9,39.7-65.1C239.2,1428.7,224.5,1394.7,211.9,1359.7"/>
					<path clip-path="url(#SVGID_6_)" fill="#D2BDB4" d="M364.6,1195.7L364.6,1195.7c-28.2,24.6-55.1,50.7-80.7,78.1
						c9.8,35,22,69,36.3,101.9c23-27.4,47.5-53.6,73.4-78.3C381.5,1264.5,371.8,1230.6,364.6,1195.7"/>
					<path clip-path="url(#SVGID_6_)" fill="#D2BDB4" d="M1895.7,1346.9L1895.7,1346.9c-12.1,35.2-26.3,69.4-42.4,102.5
						c17.2,24.9,33.2,50.7,48,77.3c18.4-32.9,34.8-67.1,49.3-102.2C1933.4,1397.7,1915.1,1371.8,1895.7,1346.9"/>
					<path clip-path="url(#SVGID_6_)" fill="#D2BDB4" d="M1058.7,1279.7c-110.2,0-214.6,25.3-307.7,70.3
						c25.3,25.5,53.9,47.8,85,66.3c69.1-27,144.2-41.8,222.7-41.8c74.9,0,146.8,13.5,213.2,38.2c30.8-18.9,58.9-41.7,83.8-67.7
						C1265.4,1303.2,1164.8,1279.7,1058.7,1279.7"/>
					<path clip-path="url(#SVGID_6_)" fill="#D2BDB4" d="M1590.5,1520.5L1590.5,1520.5c-20.9,23.8-43.4,46.1-67.3,66.9
						c19.3,22.3,37,46,52.9,70.9c24.2-21.2,47.2-43.9,68.7-67.9C1628.1,1566,1610,1542.7,1590.5,1520.5"/>
					<path clip-path="url(#SVGID_6_)" fill="#D2BDB4" d="M1441.2,1392.1L1441.2,1392.1c-21.5,24.7-45.3,47.3-71,67.6
						c30.2,17.9,58.8,38.3,85.4,60.9c24.2-20.6,46.8-42.9,67.6-66.9C1497.4,1431.2,1470,1410.6,1441.2,1392.1"/>
					<path clip-path="url(#SVGID_6_)" fill="#D2BDB4" d="M527,1520.5L527,1520.5c-21.9,24.9-42.1,51.3-60.4,79.1
						c21.9,23.7,45.2,46,69.8,66.8c17.2-27.9,36.6-54.3,58-79C570.4,1566.7,547.9,1544.3,527,1520.5"/>
					<path clip-path="url(#SVGID_6_)" fill="#D2BDB4" d="M666.5,1398.5L666.5,1398.5c-25.2,16.8-49.4,35.2-72.2,55.1
						c20.8,24,43.4,46.4,67.6,66.9c24.1-20.4,49.7-39.1,76.7-55.7C712.5,1445,688.4,1422.8,666.5,1398.5"/>
					<path clip-path="url(#SVGID_6_)" fill="#D2BDB4" d="M418,1685.9L418,1685.9c-10.3,21.7-19.5,44-27.6,66.8
						c24.7,23.8,50.7,46.4,77.9,67.5c6.6-23.1,14.5-45.6,23.6-67.4C466.1,1731.8,441.4,1709.5,418,1685.9"/>
					<path clip-path="url(#SVGID_6_)" fill="#D2BDB4" d="M1754.9,1855.7L1754.9,1855.7c-27.4,24-56,46.5-85.8,67.6
						c2.3,21.4,3.4,43.1,3.4,65c0,338.5-275.4,613.8-613.8,613.8s-613.8-275.4-613.8-613.8c0-22,1.2-43.7,3.4-65
						c-29.8-21.1-58.4-43.6-85.8-67.6c-8.2,43-12.5,87.3-12.5,132.6c0,390.7,317.9,708.6,708.6,708.6
						c390.7,0,708.6-317.9,708.6-708.6C1767.4,1943,1763,1898.7,1754.9,1855.7"/>
					<path clip-path="url(#SVGID_6_)" fill="#D2BDB4" d="M1694.7,1676L1694.7,1676c-23,24-47.4,46.7-72.9,68
						c10.7,24.6,19.9,50,27.4,76.1c27.2-21.1,53.2-43.6,77.9-67.5C1717.7,1726.4,1706.9,1700.8,1694.7,1676"/>
					<path clip-path="url(#SVGID_6_)" fill="#D2BDB4" d="M211.9,1693.5L211.9,1693.5c-33.8,94.1-52.3,195.4-52.3,300.9
						c0,491.8,400.1,891.9,891.9,891.9c491.8,0,891.9-400.1,891.9-891.9c0-100.8-16.8-197.7-47.8-288.1c-23,29.6-47.4,58-73.3,84.9
						c17.1,64.9,26.3,133,26.3,203.2c0,439.5-357.6,797.1-797.1,797.1S254.5,2434,254.5,1994.5c0-74.5,10.3-146.6,29.5-215
						C258.5,1752.1,234.4,1723.5,211.9,1693.5"/>
					<path clip-path="url(#SVGID_6_)" fill="#D2BDB4" d="M292.5,1526.6L292.5,1526.6c-13.1,21.1-25.3,42.8-36.6,65.1
						c19.9,29.8,41.3,58.5,64.3,85.9c9.8-22.4,20.5-44.3,32.2-65.6C330.9,1584.7,310.9,1556.2,292.5,1526.6"/>
					<path clip-path="url(#SVGID_6_)" fill="#D2BDB4" d="M421.9,1363.3L421.9,1363.3c-24.6,24.6-47.8,50.6-69.5,77.9
						c16.3,29.6,34.4,58.1,54.2,85.3c19.9-27.4,41.5-53.4,64.6-78C452.9,1421.4,436.5,1393,421.9,1363.3"/>
					<path clip-path="url(#SVGID_6_)" fill="#D2BDB4" d="M1690.7,1373L1690.7,1373c-14.9,29.4-31.9,57.5-50.6,84.4
						c20.1,22,38.9,45.1,56.4,69.2c19.8-27.2,37.9-55.7,54.2-85.3C1731.8,1417.5,1711.8,1394.8,1690.7,1373"/>
					<path clip-path="url(#SVGID_6_)" fill="#D2BDB4" d="M570.2,1243.9L570.2,1243.9c-25.7,16.6-50.5,34.4-74.4,53.5
						c13,29.7,28.2,58.2,45.5,85.2c23-19.2,47.2-37.2,72.3-53.8C596.7,1302,582.1,1273.6,570.2,1243.9"/>
					<path clip-path="url(#SVGID_6_)" fill="#D2BDB4" d="M1532,1243.3L1532,1243.3c-11.8,29.8-26.4,58.2-43.3,85
						c28.8,18.9,56.3,39.7,82.3,62.1c17.7-26.8,33.4-55,46.8-84.5C1590.5,1283.4,1561.9,1262.5,1532,1243.3"/>
					<path clip-path="url(#SVGID_6_)" fill="#D2BDB4" d="M1810.6,1526.6L1810.6,1526.6c-18.3,29.6-38.3,58.1-59.9,85.3
						c13.7,24.8,26,50.5,37,76.9c23.4-27,45.3-55.4,65.6-84.9C1840.3,1577.3,1826,1551.6,1810.6,1526.6"/>
					<path clip-path="url(#SVGID_6_)" fill="#D2BDB4" d="M1051.5,1102.6c-142.9,0-278.1,33.9-398,93.9c10.9,30,25.1,58.5,42.2,84.9
						c107.2-53.7,228-84,355.8-84c127.5,0,248,30.1,355,83.5c17-26.5,31.2-54.9,42.1-85C1328.9,1136.2,1194.1,1102.6,1051.5,1102.6"
						/>
					<path clip-path="url(#SVGID_6_)" fill="#D2BDB4" d="M666.5,1642.5L666.5,1642.5c-21.8,24.2-41.3,50.4-58.2,78.3
						c26.2,17.6,53.4,33.7,81.7,48.1c17.3-28.4,37.9-54.5,61.1-78C721.7,1676.7,693.5,1660.5,666.5,1642.5"/>
					<path clip-path="url(#SVGID_6_)" fill="#D2BDB4" d="M566.5,1806.8L566.5,1806.8c-8.3,22-15.1,44.6-20.3,67.9
						c28.1,17.7,57.2,34,87.2,48.8c3.6-23.6,9.2-46.5,16.6-68.6C621.2,1840.4,593.4,1824.3,566.5,1806.8"/>
					<path clip-path="url(#SVGID_6_)" fill="#D2BDB4" d="M533.7,1977.9c-0.1,3.5-0.1,7-0.1,10.5c0,285.3,232.1,517.4,517.4,517.4
						c285.3,0,517.4-232.1,517.4-517.4c0-0.6,0-1.3,0-1.9c-31.5,17.4-63.9,33.2-97.2,47.4c-22.7,211.7-202.5,377.2-420.2,377.2
						c-220.1,0-401.4-169.1-420.9-384.2C597.1,2012,564.9,1995.7,533.7,1977.9"/>
					<path clip-path="url(#SVGID_6_)" fill="#D2BDB4" d="M1535.8,1807.4L1535.8,1807.4c-26.9,17.5-54.8,33.5-83.6,48
						c8,24.1,13.9,49.3,17.5,75.1c30.2-14.3,59.6-30.1,88-47.3C1552.3,1857.2,1544.9,1831.9,1535.8,1807.4"/>
					<path clip-path="url(#SVGID_6_)" fill="#D2BDB4" d="M1441.2,1648.9L1441.2,1648.9c-27.3,17.5-55.8,33.2-85.4,47
						c21.4,22.3,40.4,46.9,56.5,73.5c28.3-14.4,55.5-30.5,81.7-48C1478.5,1695.7,1460.8,1671.5,1441.2,1648.9"/>
				</g>
			</g>
		</g>
	</g>
</g>
<g id="Layer_2">
</g>
</svg>
