<?xml version="1.0" encoding="utf-8"?>
<!-- Generator: Adobe Illustrator 19.2.1, SVG Export Plug-In . SVG Version: 6.00 Build 0)  -->
<svg version="1.1" id="Layer_1" xmlns="http://www.w3.org/2000/svg" xmlns:xlink="http://www.w3.org/1999/xlink" x="0px" y="0px"
	 viewBox="0 0 66.1 66.1" enable-background="new 0 0 66.1 66.1" xml:space="preserve">
<g id="XMLID_5_">
	<g>
		<polygon fill="#FFFFFF" points="66.1,0 66.1,66.1 32.2,66.1 32.2,59.9 59.9,59.9 59.9,6.2 32.2,6.2 32.2,0 		"/>
		<polygon fill="#FFFFFF" points="43.6,22.1 43.6,45.9 39.2,45.9 32.2,36.7 32.2,28.5 38.5,36.7 38.5,22.1 		"/>
		<polygon fill="#FFFFFF" points="32.2,59.9 32.2,66.1 0,66.1 0,0 32.2,0 32.2,6.2 6.2,6.2 6.2,59.9 		"/>
		<polygon fill="#FFFFFF" points="32.2,28.5 32.2,36.7 27.6,30.7 27.6,45.9 22.5,45.9 22.5,22.1 27.3,22.1 		"/>
	</g>
</g>
</svg>
