<?xml version="1.0" encoding="utf-8"?>
<!-- Generator: Adobe Illustrator 19.2.1, SVG Export Plug-In . SVG Version: 6.00 Build 0)  -->
<svg version="1.1" xmlns="http://www.w3.org/2000/svg" xmlns:xlink="http://www.w3.org/1999/xlink" x="0px" y="0px"
	 viewBox="0 0 500 500" enable-background="new 0 0 500 500" xml:space="preserve">
<g id="Layer_1">
	<g>
		<path fill="#FFFFFF" d="M157.2,223H103v-57h47.7c12.3,0,22.4,1.5,30.3,4.1c9.2,3.8,13.8,11.8,13.8,23.7c0,10.8-3.5,18.5-10.4,22.7
			C177.4,220.8,168.4,223,157.2,223z"/>
		<path fill="#FFFFFF" d="M200,297.2c0,15.8-5.6,26.6-16.9,32.2c-6.2,3.1-14.9,4.6-26,4.6H103v-69h55c11,0,19.6,1.7,25.7,4.5
			C194.5,274.5,200,283.9,200,297.2z"/>
		<path fill="#FFFFFF" d="M393.6,231c-7.6-6.6-17.2-9.9-28.5-9.9c-12.4,0-21.9,3.5-28.7,10.5c-6.8,7-11.1,16.4-12.8,28.4h82.9
			C405.5,247,401.2,237.6,393.6,231z M393.6,231c-7.6-6.6-17.2-9.9-28.5-9.9c-12.4,0-21.9,3.5-28.7,10.5c-6.8,7-11.1,16.4-12.8,28.4
			h82.9C405.5,247,401.2,237.6,393.6,231z M477.5,0h-455C10.1,0,0,10.1,0,22.5v455C0,489.9,10.1,500,22.5,500h455
			c12.4,0,22.5-10.1,22.5-22.5v-455C500,10.1,489.9,0,477.5,0z M313,132h103v26H313V132z M242.7,341.9c-4.9,8-10.9,14.7-18.2,20.2
			c-8.2,6.3-17.9,10.4-29,12.7c-11.2,2.3-23.2,3.3-36.3,3.3H44V122h123.7c31.3,0,53.4,9.4,66.5,27.1c7.8,10.9,11.7,23.9,11.7,39.1
			c0,15.7-3.9,28.2-11.9,37.8c-4.4,5.4-10.9,10.2-19.6,14.6c13.1,4.8,23,12.3,29.6,22.7c6.7,10.3,10,22.9,10,37.6
			C254.1,316.1,250.3,329.8,242.7,341.9z M456.3,292H322.4c0.7,18,7.1,31.5,19.2,38.9c7.3,4.6,16.2,6.9,26.5,6.9
			c10.9,0,19.8-2.7,26.7-8.4c3.7-3,7-7.4,9.9-12.4h49.1c-1.3,11-7.2,21.8-17.8,33.1c-16.5,17.9-39.5,26.7-69.2,26.7
			c-24.5,0-46.1-7.6-64.8-22.6c-18.7-15.1-28.1-39.7-28.1-73.7c0-31.9,8.4-56.4,25.3-73.4c17-17,38.8-25.5,65.8-25.5
			c16,0,30.4,2.9,43.3,8.6c12.8,5.8,23.4,14.8,31.8,27.2c7.5,11,12.4,23.6,14.7,38.1C456,263.9,456.6,276,456.3,292z M393.6,231
			c-7.6-6.6-17.2-9.9-28.5-9.9c-12.4,0-21.9,3.5-28.7,10.5c-6.8,7-11.1,16.4-12.8,28.4h82.9C405.5,247,401.2,237.6,393.6,231z"/>
	</g>
</g>
<g id="Layer_2">
</g>
</svg>
